P2
6 5
255
162 125 201 9 82
208 89 22 17 207
194 194 8 26 172
134 27 20 139 17
38 221 126 41 226
159 62 93 45 209
